<?xml version="1.0" encoding="UTF-8" standalone="no"?>
<svg
   xmlns:dc="http://purl.org/dc/elements/1.1/"
   xmlns:cc="http://creativecommons.org/ns#"
   xmlns:rdf="http://www.w3.org/1999/02/22-rdf-syntax-ns#"
   xmlns:svg="http://www.w3.org/2000/svg"
   xmlns="http://www.w3.org/2000/svg"
   viewBox="0 0 265.18668 40.360001"
   height="40.360001"
   width="265.18668"
   xml:space="preserve"
   version="1.1"
   id="svg2"><metadata
     id="metadata8"><rdf:RDF><cc:Work
         rdf:about=""><dc:format>image/svg+xml</dc:format><dc:type
           rdf:resource="http://purl.org/dc/dcmitype/StillImage" /></cc:Work></rdf:RDF></metadata><defs
     id="defs6"><clipPath
       id="clipPath18"
       clipPathUnits="userSpaceOnUse"><path
         id="path20"
         d="M 0,302.652 0,0 l 1988.88,0 0,302.652 -1988.88,0 z" /></clipPath></defs><g
     transform="matrix(1.3333333,0,0,-1.3333333,0,40.36)"
     id="g10"><g
       transform="scale(0.1)"
       id="g12"><g
         id="g14"><g
           clip-path="url(#clipPath18)"
           id="g16"><path
             id="path22"
             style="fill:#314a96;fill-opacity:1;fill-rule:nonzero;stroke:none"
             d="M 28.7891,57.9258 C 39.9336,49.3359 51.543,39.8125 71.2812,39.8125 c 22.2852,0 42.9528,14.4023 42.9528,41.793 0,28.0935 -21.8238,42.0275 -43.8824,42.0275 -20.8946,0 -32.7383,-9.985 -41.5625,-17.18 l 0,-48.5272 z M 0,188.18 l 28.7891,0 0,-57.121 c 12.3086,8.824 23.914,17.183 47.832,17.183 41.0979,0 66.8669,-27.859 66.8669,-65.7068 0,-42.254 -30.414,-67.3321 -65.7068,-67.3321 -28.5585,0 -43.4179,13.9258 -49.457,20.1992 l 0,-16.0234 L 0,19.3789 0,188.18" /><path
             id="path24"
             style="fill:#314a96;fill-opacity:1;fill-rule:nonzero;stroke:none"
             d="M 261.191,82.3047 C 244.473,81.6055 229.844,79.2852 216.379,76.0312 198.5,71.8477 190.141,65.8164 189.91,54.9062 c -0.23,-10.6835 6.735,-17.4101 20.895,-17.4101 21.828,0 39.242,9.5117 50.386,16.2461 l 0,28.5625 z M 289.98,39.5859 c 0,-8.3632 0.465,-16.7187 2.321,-20.207 l -29.489,0 c -0.921,4.1797 -1.621,8.3633 -1.621,12.5313 -12.074,-6.9532 -29.949,-16.7071 -54.562,-16.7071 -16.488,0 -48.293,6.9571 -48.293,37.6133 0,42.0274 62.687,48.0626 102.855,50.3826 l 0,5.574 c 0,9.52 -8.589,16.254 -32.277,16.254 -26.465,0 -32.039,-9.754 -33.664,-16.484 l -29.949,0 c 6.965,33.895 40.164,39.699 63.387,39.699 60.132,0 61.292,-29.254 61.292,-46.437 l 0,-62.2191" /><path
             id="path26"
             style="fill:#314a96;fill-opacity:1;fill-rule:nonzero;stroke:none"
             d="m 321.312,144.062 28.329,0 0,-15.554 c 9.054,8.824 21.359,19.734 46.664,19.734 26.007,0 48.761,-10.91 48.761,-48.992 l 0,-79.8711 -28.793,0 0,69.1914 c 0,24.6137 -7.429,35.0627 -26.699,35.0627 -22.988,0 -32.273,-9.52 -39.472,-18.344 l 0,-85.9101 -28.79,0 0,124.6831" /><path
             id="path28"
             style="fill:#314a96;fill-opacity:1;fill-rule:nonzero;stroke:none"
             d="m 476.164,188.18 28.789,0 0,-95.4261 63.16,51.3081 41.325,0 -53.172,-42.257 56.422,-82.4261 -34.594,0 -43.649,64.7813 -29.492,-23.6836 0,-41.0977 -28.789,0 0,168.8011" /><path
             id="path30"
             style="fill:#314a96;fill-opacity:1;fill-rule:nonzero;stroke:none"
             d="m 725.051,105.754 c -4.41,5.805 -14.395,19.504 -40.633,19.504 -20.895,0 -27.859,-8.125 -27.859,-15.094 0,-9.75 12.074,-11.3749 29.253,-13.6952 34.133,-4.4102 65.243,-9.5235 65.243,-40.4024 0,-36.6875 -42.024,-40.8633 -62.227,-40.8633 -42.949,0 -56.418,17.1797 -67.098,30.418 l 24.379,14.1601 c 9.985,-16.2539 27.399,-21.3632 45.508,-21.3632 15.324,0 29.254,4.6445 29.254,15.5586 0,9.5195 -6.965,10.4531 -37.613,14.625 -47.133,6.0468 -56.887,21.1328 -56.887,40.1714 0,13 10.219,39.704 58.746,39.704 14.16,0 45.043,-3.25 63.848,-29.489 l -23.914,-13.234" /><path
             id="path32"
             style="fill:#858c92;fill-opacity:1;fill-rule:nonzero;stroke:none"
             d="m 902.66,104.594 c -11.144,11.609 -26.933,23.914 -53.168,23.914 -25.074,0 -52.008,-13 -52.008,-49.9182 0,-25.0781 19.5,-46.9023 52.469,-46.9023 20.203,0 41.098,13.2383 52.707,25.7734 l 0,47.1331 z m 18.809,83.586 0,-146.0472 c 0,-3.2539 1.16,-19.039 1.39,-22.7539 l -16.949,0 -2.32,19.0391 c -18.34,-14.8594 -30.649,-22.75 -58.512,-22.75 -46.902,0 -66.402,35.7617 -66.402,63.3867 0,28.0933 17.644,65.4723 69.656,65.4723 25.074,0 37.613,-8.129 54.328,-20.433 l 0,64.086 18.809,0" /><path
             id="path34"
             style="fill:#858c92;fill-opacity:1;fill-rule:nonzero;stroke:none"
             d="m 1067.5,79.9766 c 0,22.0624 -14.4,48.5314 -51.09,48.5314 -36.68,0 -51.308,-26.469 -51.308,-48.5314 0,-29.0157 19.507,-48.2891 51.308,-48.2891 31.82,0 51.09,19.2734 51.09,48.2891 z m -121.203,2.3281 c 0,34.5933 27.398,62.2223 70.113,62.2223 42.73,0 69.9,-27.629 69.9,-62.2223 0,-42.957 -28.56,-66.6367 -69.9,-66.6367 -41.324,0 -70.113,23.6797 -70.113,66.6367" /><path
             id="path36"
             style="fill:#858c92;fill-opacity:1;fill-rule:nonzero;stroke:none"
             d="m 1111.13,140.812 18.81,0 0,-17.644 c 12.77,11.144 29.49,21.359 51.08,21.359 15.09,0 50.16,-3.48 50.16,-45.0426 l 0,-80.1055 -18.82,0 0,76.3906 c 0.47,28.7925 -20.42,32.7385 -33.66,32.7385 -20.66,0 -37.85,-12.77 -48.76,-24.379 l 0,-84.7501 -18.81,0 0,121.4331" /><path
             id="path38"
             style="fill:#858c92;fill-opacity:1;fill-rule:nonzero;stroke:none"
             d="m 1344.24,124.793 -48.3,0 0,-73.3633 c 0,-13.2461 5.81,-19.7422 24.85,-19.7422 9.05,0 16.48,1.6211 26.7,3.7148 l 0,-16.25 c -13.47,-2.0898 -22.99,-3.4843 -30.65,-3.4843 -39.7,0 -39.7,24.1445 -39.7,33.8945 l 0,75.2305 -25.78,0 0,16.019 25.78,0 0,40.403 18.8,0 0,-40.403 48.3,0 0,-16.019" /><path
             id="path40"
             style="fill:#314a96;fill-opacity:1;fill-rule:nonzero;stroke:none"
             d="m 1512.78,63.9648 c -3.94,-17.4101 -21.35,-48.7617 -67.1,-48.7617 -39.93,0 -72.67,19.5039 -72.67,69.6563 0,32.7346 25.77,63.1486 70.12,63.3826 45.74,0.235 65.24,-26.004 67.33,-47.133 l -28.79,0 c -2.79,9.985 -15.09,22.524 -36.68,22.524 -27.17,0 -42.72,-19.969 -42.72,-39.9377 0,-23.9141 12.76,-43.8828 40.4,-43.8828 24.84,0 37.38,13.0039 39.93,24.1523 l 30.18,0" /><path
             id="path42"
             style="fill:#314a96;fill-opacity:1;fill-rule:nonzero;stroke:none"
             d="m 1635.14,82.3047 c -16.73,-0.6992 -31.35,-3.0195 -44.82,-6.2735 -17.88,-4.1835 -26.23,-10.2148 -26.47,-21.125 -0.23,-10.6835 6.73,-17.4101 20.9,-17.4101 21.82,0 39.24,9.5117 50.39,16.2461 l 0,28.5625 z m 28.79,-42.7188 c 0,-8.3632 0.46,-16.7187 2.31,-20.207 l -29.48,0 c -0.93,4.1797 -1.62,8.3633 -1.62,12.5313 -12.08,-6.9532 -29.96,-16.7071 -54.57,-16.7071 -16.48,0 -48.29,6.9571 -48.29,37.6133 0,42.0274 62.69,48.0626 102.86,50.3826 l 0,5.574 c 0,9.52 -8.6,16.254 -32.28,16.254 -26.47,0 -32.04,-9.754 -33.67,-16.484 l -29.95,0 c 6.97,33.895 40.17,39.699 63.39,39.699 60.13,0 61.3,-29.254 61.3,-46.437 l 0,-62.2191" /><path
             id="path44"
             style="fill:#314a96;fill-opacity:1;fill-rule:nonzero;stroke:none"
             d="m 1695.26,144.062 28.79,0 0,-18.574 0.7,0 c 6.26,10.215 18.8,22.754 43.65,22.754 4.18,0 7.19,0 10.21,-0.465 l 0,-31.113 c -2.78,0.695 -8.12,2.324 -17.65,2.324 -36.68,-0.23 -36.68,-24.6091 -36.91,-33.4333 l 0,-66.1758 -28.79,0 0,124.6831" /><path
             id="path46"
             style="fill:#314a96;fill-opacity:1;fill-rule:nonzero;stroke:none"
             d="m 1898.87,96 c -4.41,21.133 -18.81,29.027 -39.47,29.027 -15.09,0 -32.51,-5.113 -38.31,-29.027 l 77.78,0 z m 28.33,-39.2422 c -2.09,-10.2031 -18.81,-41.5547 -65.01,-41.5547 -44.59,0 -71.29,27.8594 -71.29,66.8672 0,35.2887 23.22,66.1717 69.19,66.1717 46.91,-0.465 69.43,-29.484 69.43,-74.5272 l -109.36,0 c 1.16,-7.8984 5.57,-33.9023 41.09,-35.2968 18.12,0 30.19,8.5898 34.37,18.3398 l 31.58,0" /><path
             id="path48"
             style="fill:#575e61;fill-opacity:1;fill-rule:nonzero;stroke:none"
             d="m 1074.59,268.992 -282.902,-77.16 -3.731,13.656 286.633,97.164 0,-33.66" /><path
             id="path50"
             style="fill:#858c92;fill-opacity:1;fill-rule:nonzero;stroke:none"
             d="m 1074.59,302.652 286.64,-97.164 -3.73,-13.656 -282.91,77.16 0,33.66" /><path
             id="path52"
             style="fill:#858c92;fill-opacity:1;fill-rule:nonzero;stroke:none"
             d="m 1981,0 6.9297,0 0,6.15234 -6.9297,0 L 1981,0 Z" /><path
             id="path54"
             style="fill:#858c92;fill-opacity:1;fill-rule:nonzero;stroke:none"
             d="m 1966.66,45.8164 c -2.21,-1.375 -6.81,-4.3008 -6.81,-12.125 0,-6.4531 3.7,-13.082 12.84,-13.082 6.87,0 12.07,5.8515 12.07,13.4961 0,5.0781 -1.49,9.4414 -7.17,12.7226 l 2.33,4.1836 c 4.78,-2.7461 8.96,-7.289 8.96,-17.0234 0,-11.2266 -7.28,-18.2188 -16.66,-18.2188 -10.76,0 -16.49,8.2422 -16.49,17.9219 0,9.4375 4.48,13.918 8.54,16.3047 l 2.39,-4.1797" /><path
             id="path56"
             style="fill:#858c92;fill-opacity:1;fill-rule:nonzero;stroke:none"
             d="m 1972.34,86.7891 c -5.68,0 -12.49,-3.7032 -12.49,-13.1407 0,-9.4414 6.81,-13.2031 12.49,-13.2031 7.46,0 12.42,5.0156 12.42,13.2031 0,8.1797 -4.96,13.1407 -12.42,13.1407 z m -0.6,-31.1836 c -8.91,0 -16.01,7.0507 -16.01,18.0429 0,10.9883 7.1,17.9805 16.01,17.9805 11.05,0 17.14,-7.3516 17.14,-17.9805 0,-10.6367 -6.09,-18.0429 -17.14,-18.0429" /><path
             id="path58"
             style="fill:#858c92;fill-opacity:1;fill-rule:nonzero;stroke:none"
             d="m 1956.69,97.7773 0,4.6567 4.36,0 c -3.05,3.582 -5.32,7.289 -5.32,12.421 0,6.809 3.28,8.665 5.56,9.918 -4.12,4.899 -5.56,8.125 -5.56,12.723 0,2.871 0.6,11.473 9.62,11.473 l 22.58,0 0,-4.84 -20.79,0 c -1.91,0 -7.29,0 -7.29,-6.871 0,-5.438 3.58,-9.438 5.5,-11.469 l 22.58,0 0,-4.84 -20.79,0 c -1.91,0 -7.29,0 -7.29,-6.746 0,-5.558 3.58,-9.558 5.5,-11.59 l 22.58,0 0,-4.8357 -31.24,0" /></g></g></g></g></svg>